<svg width="330" height="330" viewBox="0 0 330 330" fill="none" xmlns="http://www.w3.org/2000/svg">
<circle cx="165" cy="165" r="165" fill="#003865"/>
<path d="M51.6296 143.552V211H33V119H57.9774L94.6846 187.552V119H113.314V211H89.3028L51.6296 143.552Z" fill="white"/>
<path d="M131.775 211V194.586H173.726C181.039 194.586 185.041 193.897 187.387 192.379C190.285 190.586 191.941 187.552 191.941 183.966C191.941 179.69 189.733 175.966 186.007 174.172C184.075 173.069 180.487 172.517 176.072 172.517H159.098C148.058 172.517 140.882 170.586 136.052 166.448C130.533 161.621 127.359 154.172 127.359 146.31C127.359 134.448 133.706 124.241 143.366 120.931C147.506 119.414 152.336 119 163.1 119H208.639V135.414H167.516C158.822 135.552 158.132 135.552 155.234 136.241C151.37 137.207 149.024 140.793 149.024 145.621C149.024 149.759 150.956 153.069 154.268 154.586C157.028 155.828 159.236 156.103 165.86 156.103H180.625C194.149 156.103 201.463 158.172 206.845 163.69C210.985 167.828 213.745 175.966 213.745 183.828C213.745 193.759 209.191 202.862 202.015 207.276C197.461 210.172 191.665 211 178.004 211H131.775Z" fill="white"/>
<path d="M297 119V135.414H271.471C258.223 135.414 253.255 136.931 249.253 142.172C246.493 145.897 245.941 147.966 245.251 157.069H297V173.483H245.251C246.631 189.207 253.531 194.586 272.299 194.586H297V211H271.471C251.875 211 242.491 208.379 235.177 200.655C227.312 192.517 223.034 179.69 223.034 164.379C223.034 148.103 228.416 135.138 238.627 126.448C245.113 120.931 251.461 119 263.881 119H297Z" fill="white"/>
</svg>